# xmcd
#
# Track frame offsets:
#	150
#	21151
#	45962
#	63215
#	92542
#	117906
#	137140
#	157932
#	180894
#	201854
#	223472
#	241338
#	263774
#	278568
#
# Disc length: 4039 seconds
#
# Revision: 0
# Processed by: cddbd v1.5.1PL0 Copyright (c) Steve Scherf et al.
# Submitted via: dBpowerAMP V4.0
#
DISCID=b80fc50e
DTITLE=George Michael - Ladies and Gentlemen: The Best Of George Michael Disc 2
DYEAR=1998
DGENRE=Rock/Pop
TTITLE0=Outside
TTITLE1=Fastlove
TTITLE2=Too Funky
TTITLE3=Freedom 90
TTITLE4=Star People 97
TTITLE5=Killer - Papa Was A Rollin' Stone
TTITLE6=I Want Your Sex (Pt. II)
TTITLE7=Monkey
TTITLE8=Spinning The Wheel
TTITLE9=Waiting For That Day - You Can't Always Get What You Want
TTITLE10=I Knew You Were Waiting For Me - (With Aretha Franklin)
TTITLE11=Hard Day
TTITLE12=Faith
TTITLE13=Somebody To Love - (With Queen)
EXTD=
EXTT0=
EXTT1=
EXTT2=
EXTT3=
EXTT4=
EXTT5=
EXTT6=
EXTT7=
EXTT8=
EXTT9=
EXTT10=
EXTT11=
EXTT12=
EXTT13=
PLAYORDER=
